<svg width="17" height="20" viewBox="0 0 17 20" fill="none" xmlns="http://www.w3.org/2000/svg">
<path d="M15.6698 6.82405C15.5779 6.8804 13.498 8.10982 13.5182 10.6391C13.5463 13.6622 16.1549 14.6655 16.19 14.6788C16.176 14.75 15.7819 16.1273 14.8054 17.5195C13.9823 18.7481 13.132 19.9494 11.7685 19.9705C10.447 19.9987 10.0039 19.1864 8.48542 19.1864C6.96071 19.1864 6.48258 19.9494 5.21718 19.9987C3.91673 20.048 2.93244 18.6848 2.08209 17.4694C0.388391 14.9832 -0.926072 10.4622 0.837708 7.38907C1.68806 5.87714 3.2556 4.90987 4.92205 4.8817C6.21548 4.86057 7.42404 5.76445 8.21833 5.76445C8.9986 5.76445 10.489 4.67667 12.0215 4.83944C12.6609 4.85979 14.4885 5.10082 15.6698 6.82405Z" fill="white"/>
<path d="M12.0426 0C12.1687 1.18717 11.7054 2.35242 11.0232 3.20699C10.3131 4.04826 9.17458 4.6978 8.06414 4.61328C7.92319 3.47541 8.48542 2.2679 9.11151 1.52602C9.82169 0.685535 11.0583 0.042259 12.0426 0Z" fill="white"/>
</svg>
