<svg width="97" height="27" viewBox="0 0 97 27" fill="none" xmlns="http://www.w3.org/2000/svg">
<path d="M36.4342 23.3413H34.426L33.3261 19.8666H29.5013L28.458 23.3413H26.5045L30.2896 11.5146H32.6323L36.4333 23.3413H36.4342ZM33.0004 18.4091L32.003 15.3264C31.8997 15.0053 31.7011 14.269 31.4142 13.0998H31.3745C31.2544 13.6046 31.0717 14.3488 30.8166 15.3264L29.8368 18.4091H32.9995H33.0004ZM46.1626 18.9777C46.1626 20.4272 45.7724 21.5716 44.9833 22.4126C44.2824 23.1657 43.4059 23.5338 42.3705 23.5338C41.2468 23.5338 40.4417 23.1338 39.9474 22.3247V26.801H38.0593V17.616C38.0593 16.7032 38.0354 15.7744 37.9878 14.8128H39.6446L39.7488 16.1665H39.7806C40.4099 15.1499 41.3659 14.6371 42.6406 14.6371C43.6451 14.6371 44.474 15.0381 45.1431 15.8303C45.8281 16.6313 46.1626 17.6719 46.1626 18.9777ZM44.2427 19.0416C44.2427 18.2086 44.0591 17.5282 43.6848 16.9924C43.2788 16.4309 42.7288 16.1505 42.043 16.1505C41.5813 16.1505 41.1594 16.3102 40.7763 16.6154C40.3981 16.9241 40.1364 17.3536 40.0348 17.8325C39.9801 18.0649 39.9474 18.2565 39.9474 18.4091V19.8346C39.9474 20.4512 40.1389 20.979 40.5132 21.4039C40.8884 21.828 41.3818 22.0444 41.9874 22.0444C42.6971 22.0444 43.247 21.7641 43.6451 21.2194C44.0432 20.6667 44.2427 19.9464 44.2427 19.0416ZM55.9166 18.9777C55.9166 20.4272 55.5256 21.5716 54.7364 22.4126C54.0356 23.1657 53.159 23.5338 52.1236 23.5338C50.9999 23.5338 50.1949 23.1338 49.7005 22.3247V26.801H47.8115V17.616C47.8115 16.7032 47.7886 15.7744 47.7409 14.8128H49.3978L49.5019 16.1665H49.5337C50.1631 15.1499 51.1191 14.6371 52.3937 14.6371C53.3982 14.6371 54.2271 15.0381 54.8962 15.8303C55.5812 16.6313 55.9157 17.6719 55.9157 18.9777H55.9166ZM53.9958 19.0416C53.9958 18.2086 53.8122 17.5282 53.438 16.9924C53.0319 16.4309 52.482 16.1505 51.7961 16.1505C51.3344 16.1505 50.9116 16.3102 50.5294 16.6154C50.1538 16.9264 49.8928 17.3549 49.7879 17.8325C49.7323 18.0649 49.7005 18.2565 49.7005 18.4091V19.8346C49.7005 20.4512 49.8921 20.979 50.2664 21.4039C50.6406 21.828 51.1349 22.0444 51.7405 22.0444C52.4502 22.0444 53.0072 21.7641 53.3982 21.2194C53.8043 20.6667 53.9958 19.9464 53.9958 19.0416ZM66.8323 20.0263C66.8323 21.0358 66.4818 21.8519 65.788 22.4853C65.0236 23.1737 63.9555 23.5179 62.5855 23.5179C61.318 23.5179 60.3064 23.2695 59.541 22.7816L59.9798 21.2034C60.8086 21.6913 61.7169 21.9397 62.7047 21.9397C63.4135 21.9397 63.9714 21.7801 64.3624 21.4607C64.7606 21.1396 64.96 20.7067 64.96 20.1709C64.96 19.6901 64.7923 19.29 64.4737 18.9617C64.1471 18.6335 63.6051 18.3292 62.8486 18.048C60.7689 17.2718 59.7414 16.1426 59.7414 14.6611C59.7414 13.6924 60.1069 12.8993 60.8325 12.2748C61.5572 11.6583 62.5211 11.346 63.7242 11.346C64.7923 11.346 65.6848 11.5305 66.3936 11.9067L65.916 13.444C65.2469 13.0838 64.4975 12.8993 63.6527 12.8993C62.9916 12.8993 62.4655 13.0679 62.0912 13.3881C61.7805 13.6844 61.6207 14.0366 61.6207 14.4615C61.6207 14.9255 61.8043 15.3184 62.1627 15.6147C62.4734 15.8942 63.0472 16.1984 63.8761 16.5276C64.8877 16.9356 65.6292 17.4164 66.1076 17.9682C66.5931 18.5209 66.8314 19.2101 66.8314 20.0263H66.8323ZM73.0793 16.2392H70.9996V20.3784C70.9996 21.4279 71.3659 21.9566 72.0995 21.9566C72.434 21.9566 72.7129 21.9246 72.9354 21.8679L72.9919 23.3094C72.6167 23.446 72.1312 23.5179 71.5257 23.5179C70.7763 23.5179 70.2025 23.2855 69.7806 22.8295C69.3577 22.3726 69.1512 21.6044 69.1512 20.531V16.2313H67.9154V14.8128H69.1512V13.2515L70.9996 12.6909V14.8128H73.0793V16.2384V16.2392ZM82.4334 19.0088C82.4334 20.3226 82.0592 21.3951 81.3186 22.2369C80.5373 23.1018 79.5019 23.5338 78.2114 23.5338C76.9676 23.5338 75.9719 23.1169 75.2305 22.2919C74.489 21.4678 74.1226 20.4192 74.1226 19.1534C74.1226 17.8316 74.5057 16.7511 75.2622 15.9101C76.0275 15.0701 77.055 14.6451 78.3464 14.6451C79.5893 14.6451 80.5929 15.0621 81.3503 15.8942C82.075 16.6952 82.4334 17.7367 82.4334 19.0096V19.0088ZM80.4817 19.0496C80.4817 18.2645 80.314 17.6001 79.9795 17.0394C79.5814 16.359 79.0155 16.0228 78.282 16.0228C77.5255 16.0228 76.9438 16.359 76.5536 17.0394C76.2112 17.6001 76.0514 18.2813 76.0514 19.0895C76.0514 19.8746 76.2191 20.547 76.5536 21.0997C76.9597 21.7801 77.5335 22.1163 78.2661 22.1163C78.9838 22.1163 79.5496 21.7721 79.9636 21.0837C80.3061 20.5071 80.4817 19.8347 80.4817 19.0496ZM88.5692 16.4788C88.3717 16.4456 88.1718 16.4296 87.9716 16.4309C87.3095 16.4309 86.7923 16.6792 86.4339 17.184C86.1232 17.624 85.9634 18.1926 85.9634 18.8651V23.3413H84.0753V17.4954C84.0753 16.5107 84.0594 15.6147 84.0197 14.8137H85.6615L85.7321 16.4468H85.7886C85.9872 15.8862 86.298 15.4302 86.7287 15.094C87.1224 14.7991 87.5998 14.639 88.0907 14.6371C88.2673 14.6371 88.4262 14.6531 88.5612 14.6691L88.5701 16.4788H88.5692ZM96.9991 18.6734C96.9991 19.0097 96.9753 19.298 96.9285 19.5304H91.2703C91.2941 20.3705 91.5651 21.0198 92.0912 21.4598C92.5696 21.8519 93.1831 22.0524 93.9396 22.0524C94.7764 22.0524 95.5418 21.9167 96.2259 21.6523L96.5216 22.9652C95.7165 23.3174 94.7685 23.4939 93.6766 23.4939C92.3613 23.4939 91.3259 23.1018 90.5774 22.3247C89.8279 21.5476 89.4537 20.4991 89.4537 19.1933C89.4537 17.9123 89.8041 16.8398 90.5059 15.982C91.2385 15.0701 92.2271 14.6132 93.47 14.6132C94.6882 14.6132 95.6212 15.0701 96.2417 15.9829C96.7449 16.7192 96.9991 17.608 96.9991 18.6734ZM95.1984 18.1855C95.2143 17.624 95.0872 17.1361 94.832 16.7272C94.5054 16.1984 94.0032 15.935 93.3341 15.935C92.7206 15.935 92.2183 16.1905 91.8361 16.7032C91.5159 17.1318 91.3225 17.6425 91.2782 18.1767L95.1984 18.1855ZM32.0912 7.28667H31.1026L30.5615 5.58078H28.6813L28.1631 7.28667H27.2072L29.0635 1.47263H30.211L32.0912 7.28667ZM30.3938 4.85957L29.9083 3.3382C29.8606 3.18651 29.7644 2.81836 29.6134 2.24175H29.5976C29.5331 2.49013 29.4537 2.8503 29.3186 3.3382L28.8402 4.85957H30.3938ZM36.744 3.0907L35.1666 7.28667H34.2662L32.7365 3.0907H33.7331L34.4419 5.30844C34.5611 5.67659 34.6652 6.02876 34.7447 6.36586H34.7685C34.84 6.06159 34.9442 5.70941 35.0713 5.30844L35.7722 3.0907H36.7449H36.744ZM40.1072 7.28667L40.0357 6.80586H40.0118C39.725 7.18997 39.318 7.38247 38.7928 7.38247C38.0434 7.38247 37.5173 6.85376 37.5173 6.14941C37.5173 5.11594 38.4097 4.57925 39.9562 4.57925V4.49941C39.9562 3.94675 39.6614 3.67441 39.0876 3.67441C38.6728 3.67441 38.3144 3.77909 37.9957 3.98755L37.8042 3.379C38.1873 3.1386 38.6728 3.01796 39.2386 3.01796C40.3305 3.01796 40.8804 3.59457 40.8804 4.75667V6.3011C40.8804 6.72602 40.8963 7.05425 40.944 7.30263L40.1072 7.28667ZM39.9801 5.19667C38.9517 5.19667 38.4335 5.44505 38.4335 6.04473C38.4335 6.48562 38.6966 6.70118 39.0717 6.70118C39.5414 6.70118 39.9801 6.34102 39.9801 5.84513V5.19667ZM42.9442 2.40231C42.871 2.4033 42.7983 2.38939 42.7306 2.3614C42.6628 2.33342 42.6014 2.29195 42.55 2.23949C42.4986 2.18702 42.4584 2.12465 42.4316 2.05613C42.4048 1.98761 42.3921 1.91436 42.3943 1.84078C42.3943 1.52143 42.6415 1.28901 42.9592 1.28901C43.2788 1.28901 43.533 1.52054 43.5259 1.84078C43.5259 2.17788 43.2867 2.40143 42.9433 2.40143L42.9442 2.40231ZM42.4976 3.0907H43.4218V7.2778H42.4976V3.0907ZM45.0716 1.16925H45.9958V7.27868H45.0716V1.16925ZM49.9318 7.28667L49.8603 6.80586H49.8365C49.5496 7.18997 49.1427 7.38247 48.6174 7.38247C47.868 7.38247 47.3419 6.85376 47.3419 6.14941C47.3419 5.11594 48.2343 4.57925 49.7809 4.57925V4.49941C49.7809 3.94675 49.486 3.67441 48.9123 3.67441C48.4974 3.67441 48.139 3.77909 47.8203 3.98755L47.6288 3.37102C48.0119 3.13062 48.4974 3.00997 49.0632 3.00997C50.1551 3.00997 50.7051 3.58659 50.7051 4.74868V6.29312C50.7051 6.71804 50.721 7.04626 50.7607 7.29465H49.9318V7.28578V7.28667ZM49.8047 5.19667C48.7763 5.19667 48.2582 5.44505 48.2582 6.04473C48.2582 6.48562 48.5212 6.70118 48.8964 6.70118C49.366 6.70118 49.8047 6.34102 49.8047 5.84513V5.19667ZM54.4654 7.38247C53.8758 7.38247 53.438 7.13409 53.1502 6.63731H53.1352L53.0796 7.28667H52.2904C52.3143 6.94957 52.3222 6.57344 52.3222 6.15739V1.16836H53.2544V3.70723H53.2702C53.5492 3.24239 53.9879 3.00997 54.6014 3.00997C55.605 3.00997 56.3068 3.87489 56.3068 5.13191C56.3068 6.42973 55.5256 7.38247 54.4654 7.38247ZM54.2748 3.73917C53.7407 3.73917 53.2544 4.20312 53.2544 4.85159V5.58788C53.2544 6.16449 53.6931 6.63731 54.2589 6.63731C54.9518 6.63731 55.3658 6.06957 55.3658 5.16473C55.3658 4.31578 54.9359 3.73917 54.2748 3.73917ZM57.6768 1.16925H58.601V7.27868H57.6768V1.16925ZM63.6448 5.41223H60.8642C60.8801 6.2053 61.4062 6.65417 62.1795 6.65417C62.5935 6.65417 62.9678 6.58142 63.3023 6.45368L63.4462 7.10215C63.0551 7.27868 62.5935 7.35852 62.0515 7.35852C60.7451 7.35852 59.9718 6.53352 59.9718 5.24457C59.9718 3.96272 60.761 2.994 61.9482 2.994C63.0075 2.994 63.6845 3.78707 63.6845 4.9882C63.6845 5.15675 63.6766 5.30046 63.6448 5.41223ZM62.8 4.7478C62.8 4.09933 62.4734 3.64247 61.8838 3.64247C61.3497 3.64247 60.9357 4.10731 60.8722 4.7478H62.8ZM69.2633 7.38247C68.0434 7.38247 67.2542 6.46876 67.2542 5.2286C67.2542 3.93078 68.0593 3.01086 69.3339 3.01086C70.537 3.01086 71.3421 3.88288 71.3421 5.15586C71.3421 6.46167 70.5132 7.38247 69.2624 7.38247H69.2633ZM69.3021 3.69126C68.633 3.69126 68.2031 4.32376 68.2031 5.19667C68.2031 6.06159 68.641 6.6861 69.2942 6.6861C69.9474 6.6861 70.3861 6.0128 70.3861 5.17272C70.3773 4.32376 69.9553 3.69126 69.3021 3.69126ZM76.3224 7.28667H75.3982V4.87642C75.3982 4.13126 75.1113 3.76312 74.5534 3.76312C74.0035 3.76312 73.6292 4.23505 73.6292 4.78772V7.27868H72.705V4.29183C72.705 3.9228 72.6962 3.52272 72.6732 3.0907H73.4853L73.525 3.73828H73.5498C73.7969 3.2903 74.3063 3.00199 74.8721 3.00199C75.7486 3.00199 76.3224 3.6753 76.3224 4.77175V7.28667ZM82.3857 3.79505H81.3662V5.82917C81.3662 6.34901 81.5489 6.60538 81.9082 6.60538C82.0671 6.60538 82.211 6.58941 82.3231 6.56546L82.346 7.2707C82.1633 7.34167 81.9241 7.37449 81.6293 7.37449C80.8966 7.37449 80.4658 6.96642 80.4658 5.90901V3.79505H79.8603V3.09868H80.4658V2.32957L81.3742 2.04925V3.0907H82.3937V3.79505H82.3857ZM87.2945 7.28667H86.3703V4.8915C86.3703 4.13925 86.0835 3.76312 85.5256 3.76312C85.0471 3.76312 84.6014 4.09134 84.6014 4.75667V7.27868H83.6772V1.16836H84.6014V3.68328H84.6173C84.9121 3.22642 85.3261 3.00199 85.8681 3.00199C86.7525 3.00199 87.2945 3.69126 87.2945 4.78772V7.28667ZM92.0277 5.41223H89.2471C89.2621 6.2053 89.7882 6.65417 90.5615 6.65417C90.9763 6.65417 91.3497 6.58142 91.6852 6.45368L91.8282 7.10215C91.438 7.27868 90.9755 7.35852 90.4335 7.35852C89.1271 7.35852 88.3538 6.53352 88.3538 5.24457C88.3538 3.96272 89.1429 2.994 90.3302 2.994C91.3895 2.994 92.0674 3.78707 92.0674 4.9882C92.0674 5.15675 92.0586 5.30046 92.0277 5.41223ZM91.1829 4.7478C91.1829 4.09933 90.8563 3.64247 90.2666 3.64247C89.7326 3.64247 89.3107 4.10731 89.2542 4.7478H91.1829ZM15.6206 12.9321C15.5977 10.0651 17.9554 8.67142 18.0596 8.60755C16.7205 6.65417 14.6487 6.38094 13.924 6.35788C12.1869 6.17336 10.4973 7.40642 9.61285 7.40642C8.71248 7.40642 7.34251 6.38183 5.87632 6.40578C3.9873 6.43772 2.21039 7.53417 1.24647 9.24804C-0.752884 12.7317 0.73714 17.8564 2.65705 20.6747C3.62097 22.0524 4.73673 23.5977 6.21087 23.5418C7.64528 23.4859 8.18727 22.621 9.91562 22.621C11.6369 22.621 12.1392 23.5418 13.6372 23.5099C15.1828 23.4859 16.1467 22.1242 17.0798 20.7315C18.1867 19.1534 18.6333 17.5921 18.6492 17.5113C18.6095 17.4963 15.6533 16.359 15.6215 12.9321H15.6206ZM12.7924 4.50739C13.5657 3.53868 14.0909 2.2178 13.9479 0.87207C12.8321 0.919974 11.4304 1.64917 10.6253 2.60191C9.91562 3.44288 9.2783 4.81167 9.43807 6.1015C10.6968 6.19731 11.9874 5.46102 12.7924 4.50739Z" fill="white"/>
</svg>
