<svg width="23" height="24" viewBox="0 0 23 24" fill="none" xmlns="http://www.w3.org/2000/svg">
<path d="M22.6931 12.6534C22.6931 11.2772 22.4482 9.95762 21.999 8.73686C21.692 12.3337 19.7744 14.1812 17.7707 13.3209C15.8939 12.5146 17.1587 9.3716 17.2521 7.87185C17.4096 5.32955 17.2441 2.41949 12.6261 0C14.545 3.67095 12.8483 5.95161 11.0689 6.09044C9.09461 6.24462 7.2865 4.39379 7.95395 1.39029C5.79276 2.98281 5.73002 5.66327 6.3968 7.3973C7.09227 9.20474 6.36876 10.7065 4.67279 10.8734C2.77724 11.0602 1.72401 8.84365 2.69514 5.31153C1.01452 7.29051 0 9.8535 0 12.6534C0 18.9201 5.07993 24 11.3466 24C17.6132 24 22.6931 18.9201 22.6931 12.6534Z" fill="#F4900C"/>
<path d="M18.2842 15.99C18.383 18.0484 16.5748 18.8554 15.6017 18.4656C14.1961 17.9029 14.5732 16.9365 14.2114 14.9341C13.8497 12.9318 12.4594 11.5415 10.4016 10.9294C11.9034 15.1564 9.56934 16.7142 8.34591 16.9925C7.09645 17.2768 5.84099 16.9918 5.69749 14.3181C4.23979 15.7691 3.3374 17.7768 3.3374 19.9954C3.3374 20.241 3.35275 20.4826 3.37411 20.7229C5.42317 22.7479 8.23779 24 11.3467 24C14.4557 24 17.2703 22.7479 19.3194 20.7229C19.3407 20.4826 19.3561 20.241 19.3561 19.9954C19.3561 18.5357 18.9663 17.1681 18.2842 15.99Z" fill="#FFCC4D"/>
</svg>
