<svg width="24" height="24" viewBox="0 0 24 24" fill="none" xmlns="http://www.w3.org/2000/svg">
<path d="M12 24C18.6274 24 24 18.6274 24 12C24 5.37258 18.6274 0 12 0C5.37258 0 0 5.37258 0 12C0 18.6274 5.37258 24 12 24Z" fill="#FFCC4D"/>
<path d="M11.9998 14C9.5845 14 7.98184 13.7187 5.99984 13.3333C5.54717 13.246 4.6665 13.3333 4.6665 14.6667C4.6665 17.3333 7.72984 20.6667 11.9998 20.6667C16.2692 20.6667 19.3332 17.3333 19.3332 14.6667C19.3332 13.3333 18.4525 13.2453 17.9998 13.3333C16.0178 13.7187 14.4152 14 11.9998 14Z" fill="#664500"/>
<path d="M6 14.6666C6 14.6666 8 15.3333 12 15.3333C16 15.3333 18 14.6666 18 14.6666C18 14.6666 16.6667 17.3333 12 17.3333C7.33333 17.3333 6 14.6666 6 14.6666Z" fill="white"/>
<path d="M8.00016 11.3333C8.92064 11.3333 9.66683 10.2886 9.66683 8.99996C9.66683 7.71129 8.92064 6.66663 8.00016 6.66663C7.07969 6.66663 6.3335 7.71129 6.3335 8.99996C6.3335 10.2886 7.07969 11.3333 8.00016 11.3333Z" fill="#664500"/>
<path d="M16.0002 11.3333C16.9206 11.3333 17.6668 10.2886 17.6668 8.99996C17.6668 7.71129 16.9206 6.66663 16.0002 6.66663C15.0797 6.66663 14.3335 7.71129 14.3335 8.99996C14.3335 10.2886 15.0797 11.3333 16.0002 11.3333Z" fill="#664500"/>
</svg>
