<svg width="22" height="24" viewBox="0 0 22 24" fill="none" xmlns="http://www.w3.org/2000/svg">
<path d="M21.4892 11.8627C21.4892 11.5252 21.4087 11.2084 21.2738 10.9204C20.3737 8.017 16.1602 8.22909 10.1667 8.08747C9.16469 8.06398 9.73786 6.88073 10.0895 4.28334C10.3184 2.59403 9.22912 0 7.39819 0C4.37932 0 7.28343 2.38127 4.61422 8.27003C3.18801 11.4164 0 9.65396 0 12.8145V20.0086C0 21.2388 0.120809 22.4214 1.85106 22.6161C3.52829 22.8047 3.1511 24 5.57063 24H17.681C18.9146 24 19.918 22.9959 19.918 21.7624C19.918 21.2509 19.7388 20.7851 19.4495 20.408C20.1341 20.0247 20.6039 19.3012 20.6039 18.4623C20.6039 17.9522 20.4254 17.4864 20.1368 17.1099C20.8234 16.7273 21.2946 16.0031 21.2946 15.1628C21.2946 14.5528 21.0476 13.9997 20.6496 13.595C21.1576 13.1849 21.4892 12.5648 21.4892 11.8627Z" fill="#FFDB5E"/>
<path d="M13.4781 14.0998H19.2528C20.0381 14.0998 20.775 13.6797 21.1763 13.0038C21.3414 12.7253 21.2495 12.3649 20.9703 12.1991C20.6918 12.0333 20.3314 12.1266 20.1656 12.4051C19.9756 12.7266 19.6246 12.9253 19.2521 12.9253H13.3392C12.7533 12.9253 12.2768 12.4488 12.2768 11.8628C12.2768 11.2769 12.7533 10.8004 13.3392 10.8004H17.2903C17.6145 10.8004 17.8776 10.5373 17.8776 10.2131C17.8776 9.88895 17.6145 9.62585 17.2903 9.62585H13.3385C12.1049 9.62585 11.1016 10.6292 11.1016 11.8628C11.1016 12.5508 11.4204 13.1595 11.9103 13.5703C11.4975 13.9763 11.2405 14.5401 11.2405 15.1629C11.2405 15.8529 11.5613 16.4636 12.0539 16.8737C11.6439 17.2791 11.3895 17.8408 11.3895 18.4623C11.3895 19.214 11.7647 19.8771 12.3352 20.2832C11.9835 20.6785 11.7633 21.1933 11.7633 21.7624C11.7633 22.996 12.7667 23.9994 14.0003 23.9994H17.6809C18.4662 23.9994 19.2038 23.5799 19.6052 22.9041C19.7709 22.6255 19.679 22.2651 19.4005 22.0994C19.1213 21.9349 18.7608 22.0255 18.5957 22.3041C18.4045 22.6255 18.0534 22.8249 17.6809 22.8249H14.0003C13.4144 22.8249 12.9379 22.3484 12.9379 21.7624C12.9379 21.1765 13.4144 20.7 14.0003 20.7H18.3669C19.1521 20.7 19.8904 20.2798 20.2911 19.604C20.4569 19.3248 20.3649 18.9644 20.0864 18.7993C19.8052 18.6308 19.4461 18.7254 19.2817 19.004C19.0877 19.3308 18.7454 19.5255 18.3669 19.5255H13.6265C13.0405 19.5255 12.564 19.0483 12.564 18.4623C12.564 17.8764 13.0405 17.3999 13.6265 17.3999H19.0568C19.8421 17.3999 20.5797 16.9804 20.981 16.3046C21.1468 16.026 21.0549 15.6656 20.7763 15.4998C20.4965 15.3347 20.1367 15.426 19.9716 15.7045C19.7776 16.0307 19.4354 16.2254 19.0568 16.2254H13.4781C12.8922 16.2254 12.4157 15.7488 12.4157 15.1629C12.4157 14.577 12.8915 14.0998 13.4781 14.0998Z" fill="#EE9547"/>
</svg>
