<svg width="109" height="27" viewBox="0 0 109 27" fill="none" xmlns="http://www.w3.org/2000/svg">
<path fill-rule="evenodd" clip-rule="evenodd" d="M0.74517 26.4589C0.293685 26.3345 0 25.8847 0 25.1878V2.15064C0 1.50542 0.248974 1.06883 0.643475 0.910156L11.9017 13.7472L0.74517 26.4589Z" fill="#02C3FF"/>
<path fill-rule="evenodd" clip-rule="evenodd" d="M15.6292 18.1685L12.3285 14.4067L2.07764 25.892L15.6292 18.1685Z" fill="#FD3944"/>
<path fill-rule="evenodd" clip-rule="evenodd" d="M15.439 8.52764L2.07764 0.911133L12.0664 12.3718L15.439 8.52764Z" fill="#00DE76"/>
<path fill-rule="evenodd" clip-rule="evenodd" d="M22.3614 12.1992C23.3538 12.7647 23.3625 13.6738 22.3614 14.2445L16.9944 17.3041L13.4956 13.2863L17.1285 9.2168L22.3614 12.1992Z" fill="#FFD000"/>
<path d="M86.5806 18.6284C86.0955 18.6344 85.6146 18.537 85.17 18.3426C84.7417 18.1503 84.372 17.8478 84.0987 17.466H84.012C84.0698 17.928 84.0996 18.3663 84.0996 18.7792V22.0317H82.9021V10.5788H83.8752L84.0418 11.6607H84.0987C84.4065 11.2285 84.765 10.9155 85.1735 10.7226C85.5821 10.5306 86.052 10.4351 86.5797 10.4351C87.6282 10.4351 88.4374 10.7928 89.0072 11.509C89.5771 12.2261 89.862 13.2308 89.862 14.5239C89.862 15.8222 89.5727 16.8295 88.9932 17.5493C88.4128 18.2681 87.6089 18.6276 86.5797 18.6276L86.5806 18.6284ZM86.407 11.452C85.5996 11.452 85.0158 11.6756 84.6546 12.1235C84.2943 12.5706 84.1084 13.2816 84.0987 14.2582V14.5247C84.0987 15.6355 84.2846 16.4306 84.6546 16.9093C85.0245 17.3879 85.6189 17.6264 86.436 17.6264C87.1189 17.6264 87.6545 17.3502 88.0403 16.7979C88.4277 16.2456 88.6215 15.4829 88.6215 14.5116C88.6215 13.5262 88.4286 12.7696 88.0411 12.2428C87.6536 11.715 87.1092 11.452 86.407 11.452ZM92.6331 18.4829H91.4356V7.26153H92.6331V18.4829ZM99.515 18.4829L99.2774 17.3581H99.2196C98.8251 17.8543 98.4323 18.1892 98.0404 18.3646C97.6486 18.5399 97.1585 18.6276 96.5729 18.6276C95.7891 18.6276 95.1746 18.4259 94.731 18.0227C94.2857 17.6194 94.0639 17.0443 94.0639 16.2991C94.0639 14.7036 95.3403 13.8672 97.8932 13.7892L99.2345 13.7454V13.2553C99.2345 12.6346 99.1012 12.177 98.8329 11.8816C98.5664 11.5861 98.1404 11.438 97.553 11.438C96.8938 11.438 96.1495 11.6396 95.3175 12.0429L94.9502 11.1276C95.3549 10.9103 95.7847 10.7433 96.2301 10.6306C96.6861 10.5116 97.1554 10.4512 97.6266 10.4509C98.5691 10.4509 99.2678 10.6595 99.7219 11.0777C100.175 11.4958 100.403 12.1674 100.403 13.0896V18.4847H99.5159V18.4838L99.515 18.4829ZM96.8113 17.6404C97.5556 17.6404 98.1413 17.4353 98.5673 17.0268C98.9925 16.6191 99.2055 16.0466 99.2055 15.3102V14.5966L98.008 14.6457C97.0559 14.6799 96.3704 14.8281 95.9496 15.0902C95.5288 15.3532 95.3184 15.7591 95.3184 16.3123C95.3184 16.7445 95.4499 17.075 95.712 17.3003C95.9741 17.5273 96.3397 17.6404 96.8113 17.6404ZM101.098 10.5797H102.381L104.112 15.0867C104.492 16.115 104.728 16.8584 104.819 17.3152H104.877C104.939 17.0697 105.07 16.6507 105.269 16.0563C105.468 15.4628 106.122 13.6367 107.227 10.5788H108.51L105.113 19.5787C104.777 20.4677 104.384 21.0989 103.933 21.4723C103.484 21.8449 102.931 22.0308 102.278 22.0308C101.913 22.0308 101.553 21.9905 101.196 21.9081V20.9516C101.489 21.0121 101.786 21.0412 102.085 21.0384C102.906 21.0384 103.492 20.5764 103.843 19.6533L104.283 18.5294L101.098 10.5806V10.5797ZM64.4035 11.3144C64.784 11.6291 65.5773 12.2892 65.5773 13.5464C65.5773 14.7685 64.883 15.3479 64.1887 15.8932C63.9739 16.108 63.7249 16.3403 63.7249 16.7041C63.7249 17.0671 63.973 17.2661 64.1545 17.4142L64.7506 17.8771C65.4783 18.489 66.1384 19.0519 66.1384 20.1915C66.1384 21.7459 64.634 23.3169 61.791 23.3169C59.3933 23.3169 58.2361 22.1763 58.2361 20.9516C58.2361 20.3572 58.5333 19.5139 59.509 18.9353C60.5339 18.3076 61.9234 18.2252 62.6668 18.1743C62.4354 17.8763 62.1706 17.5633 62.1706 17.0522C62.1706 16.7708 62.2539 16.6051 62.3372 16.4069C62.1612 16.4255 61.9846 16.4364 61.8077 16.4394C60.0552 16.4394 59.0637 15.1331 59.0637 13.8444C59.0637 13.0835 59.4108 12.2401 60.121 11.6291C61.0642 10.8524 62.1881 10.72 63.0815 10.72H66.4864L65.4283 11.3144H64.4035ZM63.2287 18.6547C63.0972 18.6381 63.014 18.6381 62.85 18.6381C62.701 18.6381 61.8068 18.6714 61.1125 18.9037C60.7495 19.0352 59.6914 19.4323 59.6914 20.6062C59.6914 21.7792 60.8328 22.6225 62.6019 22.6225C64.1869 22.6225 65.0312 21.8607 65.0312 20.8368C65.0312 19.9917 64.4868 19.5481 63.2296 18.6547H63.2287ZM63.7092 15.5136C64.0888 15.1323 64.1212 14.6045 64.1212 14.3064C64.1212 13.1159 63.4111 11.2644 62.0391 11.2644C61.6095 11.2644 61.1467 11.4792 60.8819 11.8106C60.6014 12.1577 60.5172 12.604 60.5172 13.0344C60.5172 14.1416 61.1624 15.9765 62.5853 15.9765C62.9982 15.9765 63.4426 15.7784 63.7092 15.5136ZM53.9957 18.39C51.3718 18.39 49.9691 16.343 49.9691 14.4941C49.9691 12.3313 51.7347 10.4842 54.2446 10.4842C56.6695 10.4842 58.1888 12.3813 58.1888 14.3792C58.1888 16.3254 56.687 18.39 53.9957 18.39ZM56.0576 17.0531C56.4556 16.5244 56.5538 15.8652 56.5538 15.2199C56.5538 13.7673 55.8612 10.9944 53.8142 10.9944C53.2681 10.9992 52.7416 11.1984 52.3291 11.5563C51.6856 12.1341 51.569 12.8599 51.569 13.5709C51.569 15.2042 52.3782 17.8929 54.3761 17.8929C55.0196 17.8938 55.6789 17.5808 56.0576 17.0531ZM45.0492 18.39C42.4254 18.39 41.0218 16.343 41.0218 14.4941C41.0218 12.3313 42.7892 10.4842 45.2982 10.4842C47.724 10.4842 49.2423 12.3813 49.2423 14.3792C49.2423 16.3254 47.7397 18.39 45.0492 18.39ZM47.1129 17.0531C47.5092 16.5244 47.6082 15.8652 47.6082 15.2199C47.6082 13.7673 46.9148 10.9944 44.8678 10.9944C44.3217 10.9994 43.7952 11.1986 43.3827 11.5563C42.7392 12.1341 42.6235 12.8599 42.6235 13.5709C42.6235 15.2042 43.4318 17.8929 45.4297 17.8929C46.0732 17.8938 46.7333 17.5808 47.1129 17.0531ZM39.7612 18.1314L37.388 18.6784C36.4246 18.8274 35.5619 18.9598 34.6502 18.9598C30.0696 18.9598 28.3276 15.5916 28.3276 12.9529C28.3276 9.73462 30.7998 6.7478 35.0315 6.7478C35.9284 6.7478 36.7901 6.88018 37.5704 7.09584C38.8152 7.44475 39.3956 7.87608 39.7612 8.12505L38.383 9.43567L37.8027 9.56805L38.2174 8.90353C37.6537 8.35649 36.6244 7.34481 34.6668 7.34481C32.0456 7.34481 30.0696 9.33661 30.0696 12.2401C30.0696 15.3593 32.327 18.2971 35.9441 18.2971C37.0075 18.2971 37.5537 18.0814 38.0517 17.8815V15.2112L35.547 15.3427L36.8734 14.6291H40.3915L39.961 15.0437C39.8436 15.1437 39.8278 15.177 39.7945 15.3085C39.7769 15.4584 39.7612 15.9406 39.7612 16.1063V18.1314Z" fill="white"/>
<path d="M69.6496 17.6536C69.1017 17.6036 68.986 17.5045 68.986 16.8558V7.46315L68.9947 7.35619C69.0622 6.77584 69.2279 6.67677 69.7425 6.37695H67.3694L66.1245 6.97484H67.3931V6.98273L67.3922 6.97572V17.2205C67.3922 17.5519 67.3264 17.6027 66.9451 18.0998H69.8819L70.4965 17.7351C70.2133 17.7027 69.931 17.6869 69.6496 17.6536ZM76.4017 17.8061C76.2211 17.906 76.0396 18.0209 75.8582 18.1033C75.3138 18.3505 74.7536 18.4163 74.2583 18.4163C73.7322 18.4163 72.9082 18.3821 72.0666 17.7728C70.8971 16.9487 70.3869 15.5311 70.3869 14.295C70.3869 11.7413 72.4628 10.4894 74.1609 10.4894C74.7536 10.4894 75.3637 10.6376 75.8582 10.9505C76.6822 11.4941 76.897 12.2015 77.0101 12.5811L73.1387 14.1469L71.8693 14.2459C72.2814 16.3394 73.6981 17.558 75.2647 17.558C76.1045 17.558 76.7156 17.2617 77.2757 16.982L76.4017 17.8061ZM74.8535 12.895C75.1656 12.7793 75.3304 12.6811 75.3304 12.4496C75.3304 11.7913 74.5888 11.0329 73.6981 11.0329C73.0388 11.0329 71.8027 11.544 71.8027 13.3237C71.8027 13.6042 71.836 13.8997 71.8527 14.1968L74.8535 12.895ZM77.992 10.6016V11.6887H77.8596V10.6016H77.5002V10.4894H78.3505V10.6016H77.9911H77.992ZM79.4736 11.6887V10.5911H79.4683L79.1334 11.6896H79.03L78.6916 10.5911H78.6881V11.6896H78.568V10.4885H78.7731L79.0799 11.459H79.0834L79.385 10.4894H79.5937V11.6896H79.4744L79.4736 11.6887Z" fill="white"/>
</svg>
