<svg width="60" height="60" viewBox="0 0 60 60" fill="none" xmlns="http://www.w3.org/2000/svg">
<path d="M15.9551 55.8984H34.7051C36.1343 55.8968 37.5044 55.3283 38.515 54.3177C39.5256 53.3072 40.0941 51.937 40.0957 50.5078V43.125H46.6242C47.3699 43.1241 48.0847 42.8275 48.612 42.3003C49.1393 41.773 49.4359 41.0582 49.4367 40.3125V23.6719C49.4367 23.5795 49.4186 23.4881 49.3832 23.4028C49.3479 23.3175 49.2961 23.2399 49.2308 23.1747L41.9652 15.909C41.8999 15.8437 41.8224 15.7919 41.7371 15.7566C41.6517 15.7213 41.5603 15.7031 41.468 15.7031H40.0957V9.49219C40.0941 8.06301 39.5256 6.69284 38.515 5.68226C37.5044 4.67167 36.1343 4.10321 34.7051 4.10156H15.9551C14.5259 4.10321 13.1557 4.67167 12.1451 5.68226C11.1346 6.69284 10.5661 8.06301 10.5645 9.49219V50.5078C10.5661 51.937 11.1346 53.3072 12.1451 54.3177C13.1557 55.3283 14.5259 55.8968 15.9551 55.8984ZM46.6242 41.7188H32.093C31.7201 41.7183 31.3627 41.5701 31.099 41.3064C30.8354 41.0428 30.6871 40.6853 30.6867 40.3125V18.5156C30.6871 18.1428 30.8354 17.7853 31.099 17.5217C31.3627 17.2581 31.7201 17.1098 32.093 17.1094H40.7648V21.5625C40.7657 22.3082 41.0623 23.023 41.5896 23.5503C42.1168 24.0775 42.8317 24.3741 43.5774 24.375H48.0305V40.3125C48.0301 40.6853 47.8818 41.0428 47.6181 41.3064C47.3545 41.5701 46.9971 41.7183 46.6242 41.7188ZM42.1711 18.1037L47.0361 22.9688H43.5774C43.2045 22.9683 42.8471 22.8201 42.5834 22.5564C42.3198 22.2928 42.1715 21.9353 42.1711 21.5625V18.1037ZM15.9551 5.50781H34.7051C35.7614 5.50899 36.7742 5.92915 37.5212 6.67611C38.2681 7.42307 38.6883 8.43583 38.6895 9.49219V11.1328H37.0488C36.8624 11.1328 36.6835 11.2069 36.5516 11.3388C36.4198 11.4706 36.3457 11.6495 36.3457 11.8359C36.3457 12.0224 36.4198 12.2013 36.5516 12.3331C36.6835 12.465 36.8624 12.5391 37.0488 12.5391H38.6895V15.7031H32.093C31.3473 15.704 30.6325 16.0006 30.1052 16.5278C29.5779 17.0551 29.2813 17.77 29.2805 18.5156V40.3125C29.2813 41.0582 29.5779 41.773 30.1052 42.3003C30.6325 42.8275 31.3473 43.1241 32.093 43.125H38.6895V46.0547H11.9707V12.5391H37.0723C37.2587 12.5391 37.4376 12.465 37.5695 12.3331C37.7013 12.2013 37.7754 12.0224 37.7754 11.8359C37.7754 11.6495 37.7013 11.4706 37.5695 11.3388C37.4376 11.2069 37.2587 11.1328 37.0723 11.1328H11.9707V9.49219C11.9719 8.43583 12.392 7.42307 13.139 6.67611C13.886 5.92915 14.8987 5.50899 15.9551 5.50781ZM11.9707 47.4609H38.6895V50.5078C38.6883 51.5642 38.2681 52.5769 37.5212 53.3239C36.7742 54.0709 35.7614 54.491 34.7051 54.4922H15.9551C14.8987 54.491 13.886 54.0709 13.139 53.3239C12.392 52.5769 11.9719 51.5642 11.9707 50.5078V47.4609Z" fill="url(#paint0_linear)"/>
<path d="M25.3301 53.4375C25.8168 53.4375 26.2926 53.2932 26.6973 53.0228C27.102 52.7524 27.4174 52.368 27.6037 51.9183C27.7899 51.4687 27.8387 50.9738 27.7437 50.4965C27.6488 50.0191 27.4144 49.5806 27.0702 49.2364C26.7261 48.8923 26.2876 48.6579 25.8102 48.5629C25.3328 48.468 24.838 48.5167 24.3883 48.703C23.9386 48.8892 23.5543 49.2046 23.2839 49.6093C23.0135 50.014 22.8691 50.4898 22.8691 50.9766C22.8699 51.629 23.1294 52.2546 23.5907 52.7159C24.0521 53.1773 24.6776 53.4368 25.3301 53.4375ZM25.3301 49.9219C25.5387 49.9219 25.7426 49.9837 25.916 50.0996C26.0895 50.2155 26.2247 50.3802 26.3045 50.573C26.3843 50.7657 26.4052 50.9777 26.3645 51.1823C26.3238 51.3869 26.2234 51.5748 26.0759 51.7223C25.9284 51.8698 25.7404 51.9703 25.5358 52.011C25.3312 52.0517 25.1192 52.0308 24.9265 51.951C24.7337 51.8711 24.569 51.736 24.4531 51.5625C24.3372 51.3891 24.2754 51.1852 24.2754 50.9766C24.2757 50.697 24.387 50.4289 24.5847 50.2312C24.7824 50.0334 25.0505 49.9222 25.3301 49.9219Z" fill="#72AF32"/>
<path d="M40.4898 25.4465H38.2295C38.043 25.4465 37.8642 25.5206 37.7323 25.6525C37.6004 25.7843 37.5264 25.9632 37.5264 26.1497V37.4498C37.5264 37.6363 37.6004 37.8151 37.7323 37.947C37.8642 38.0789 38.043 38.1529 38.2295 38.1529H40.4898C40.6763 38.1529 40.8551 38.0789 40.987 37.947C41.1189 37.8151 41.1929 37.6363 41.1929 37.4498V26.1497C41.1929 25.9632 41.1189 25.7843 40.987 25.6525C40.8551 25.5206 40.6763 25.4465 40.4898 25.4465ZM39.7867 36.7467H38.9329V26.8528H39.7867V36.7467Z" fill="#72AF32"/>
<path d="M35.9691 29.9663H33.709C33.5225 29.9663 33.3437 30.0404 33.2118 30.1723C33.0799 30.3041 33.0059 30.483 33.0059 30.6694V37.4496C33.0059 37.636 33.0799 37.8149 33.2118 37.9467C33.3437 38.0786 33.5225 38.1527 33.709 38.1527H35.9691C36.1555 38.1527 36.3344 38.0786 36.4663 37.9467C36.5981 37.8149 36.6722 37.636 36.6722 37.4496V30.6694C36.6722 30.483 36.5981 30.3041 36.4663 30.1723C36.3344 30.0404 36.1555 29.9663 35.9691 29.9663ZM35.2659 36.7464H34.4121V31.3726H35.2659V36.7464Z" fill="#72AF32"/>
<path d="M45.0075 28.4597H42.7476C42.5611 28.4597 42.3822 28.5338 42.2504 28.6657C42.1185 28.7975 42.0444 28.9764 42.0444 29.1628V37.4496C42.0444 37.6361 42.1185 37.815 42.2504 37.9468C42.3822 38.0787 42.5611 38.1528 42.7476 38.1528H45.0075C45.194 38.1528 45.3728 38.0787 45.5047 37.9468C45.6366 37.815 45.7106 37.6361 45.7106 37.4496V29.1628C45.7106 28.9764 45.6366 28.7975 45.5047 28.6657C45.3728 28.5338 45.194 28.4597 45.0075 28.4597ZM44.3044 36.7465H43.4507V29.866H44.3044V36.7465Z" fill="#72AF32"/>
<defs>
<linearGradient id="paint0_linear" x1="10.5645" y1="4.10156" x2="59.0796" y2="15.7555" gradientUnits="userSpaceOnUse">
<stop stop-color="#72AF32"/>
<stop offset="1" stop-color="#4B9B3F"/>
</linearGradient>
</defs>
</svg>
