<svg width="60" height="60" viewBox="0 0 60 60" fill="none" xmlns="http://www.w3.org/2000/svg">
<path d="M36.8001 36.8462C36.4356 36.8462 36.0794 36.9542 35.7764 37.1567C35.4734 37.3592 35.2372 37.6469 35.0978 37.9836C34.9583 38.3203 34.9218 38.6907 34.9929 39.0481C35.064 39.4056 35.2395 39.7339 35.4971 39.9916C35.7548 40.2492 36.0831 40.4247 36.4405 40.4958C36.7979 40.567 37.1684 40.5305 37.5051 40.391C37.8418 40.2516 38.1295 40.0155 38.332 39.7125C38.5345 39.4095 38.6426 39.0533 38.6426 38.6888C38.6421 38.2003 38.4478 37.732 38.1024 37.3865C37.7569 37.0411 37.2886 36.8467 36.8001 36.8462ZM36.8001 39.125C36.7138 39.125 36.6294 39.0994 36.5577 39.0515C36.4859 39.0035 36.43 38.9354 36.397 38.8557C36.364 38.7759 36.3553 38.6882 36.3722 38.6036C36.389 38.5189 36.4306 38.4412 36.4916 38.3802C36.5526 38.3192 36.6304 38.2776 36.715 38.2608C36.7997 38.244 36.8874 38.2526 36.9671 38.2857C37.0468 38.3187 37.115 38.3747 37.1629 38.4464C37.2108 38.5182 37.2364 38.6026 37.2363 38.6888C37.2362 38.8045 37.1902 38.9154 37.1084 38.9971C37.0266 39.0789 36.9157 39.1249 36.8001 39.125Z" fill="#72AF32"/>
<path d="M50.3394 28.7201C50.7944 28.3931 51.1613 27.9584 51.4072 27.455C51.6531 26.9516 51.7704 26.395 51.7485 25.8351C51.7267 25.2753 51.5665 24.7295 51.2822 24.2468C50.9978 23.764 50.5983 23.3592 50.1192 23.0686C50.7003 22.7831 51.1874 22.3371 51.5229 21.7834C51.8584 21.2297 52.0283 20.5915 52.0124 19.9442C51.9966 19.297 51.7957 18.6679 51.4335 18.1313C51.0713 17.5946 50.563 17.173 49.9686 16.9162C50.669 16.5287 51.2096 15.9059 51.4948 15.1581C51.78 14.4102 51.7914 13.5855 51.5269 12.8301C51.2624 12.0746 50.7391 11.4372 50.0497 11.0305C49.3603 10.6239 48.5492 10.4743 47.7601 10.6083V7.58227C47.7592 6.71614 47.4147 5.88577 46.8022 5.27333C46.1898 4.66088 45.3594 4.31639 44.4933 4.31543H29.1108C28.2447 4.31642 27.4143 4.66092 26.8019 5.27336C26.1894 5.8858 25.8449 6.71615 25.8439 7.58227V18.033L16.2483 27.6172C15.3153 28.5428 14.6356 29.6924 14.2742 30.956C13.9129 32.2195 13.882 33.5547 14.1846 34.8336L14.201 34.9039C14.3269 35.43 14.3157 35.9796 14.1683 36.5001C14.0209 37.0206 13.7424 37.4945 13.3594 37.8765C11.3689 39.8641 8.13281 43.1 8.13281 43.1L9.12727 44.0945C9.12727 44.0945 12.3629 40.8588 14.353 38.8714C14.906 38.321 15.3083 37.6377 15.5215 36.8872C15.7347 36.1366 15.7516 35.3439 15.5706 34.585L15.5542 34.5146C15.3066 33.4686 15.3318 32.3766 15.6273 31.3431C15.9227 30.3096 16.4786 29.3692 17.2417 28.6121L25.8439 20.0205V25.5853L21.1141 29.3304C20.9687 29.4464 20.8752 29.6153 20.8541 29.8001C20.8329 29.985 20.8859 30.1707 21.0014 30.3165C21.1169 30.4624 21.2854 30.5565 21.4702 30.5783C21.6549 30.6001 21.8408 30.5478 21.9871 30.4329L27.2055 26.301H27.2502V26.2658L33.7866 21.0899L34.2485 21.5517C34.8364 22.1397 35.1667 22.9371 35.1667 23.7686C35.1667 24.6 34.8364 25.3974 34.2485 25.9854L29.659 30.5749C28.9971 31.2368 28.6018 32.119 28.5483 33.0536C28.5475 33.067 28.5471 33.0907 28.5471 33.1042C28.5551 33.9458 28.7452 34.7757 29.1042 35.537C29.2028 35.7632 29.2723 36.001 29.3112 36.2447V36.315H29.3229C29.3865 36.7543 29.4061 37.1988 29.3815 37.642C29.2707 39.8868 28.3209 42.008 26.7202 43.5857C26.0431 44.2664 25.2376 44.8061 24.3506 45.1736C23.4635 45.541 22.5123 45.7288 21.5522 45.7262H21.4924C21.3059 45.7262 21.1271 45.8003 20.9952 45.9321C20.8634 46.064 20.7893 46.2429 20.7893 46.4293C20.7893 46.6158 20.8634 46.7947 20.9952 46.9265C21.1271 47.0584 21.3059 47.1325 21.4924 47.1325H21.5522C22.6971 47.1356 23.8313 46.9117 24.889 46.4735C25.9468 46.0354 26.9072 45.3918 27.7145 44.58C28.347 43.9474 28.8976 43.238 29.3537 42.4684H39.4577L34.8839 48.9779C34.1195 50.0617 32.9718 50.8145 31.6732 51.0839C30.3746 51.3533 29.0221 51.1191 27.8897 50.4287C26.6323 49.6591 24.8311 49.8728 23.7881 50.9154L20.2195 54.4836C20.1528 54.5486 20.0996 54.6262 20.0631 54.7118C20.0266 54.7975 20.0075 54.8896 20.0068 54.9827C20.0062 55.0759 20.0241 55.1682 20.0595 55.2544C20.0948 55.3406 20.1469 55.4188 20.2128 55.4847C20.2787 55.5506 20.357 55.6027 20.4431 55.638C20.5293 55.6734 20.6216 55.6912 20.7148 55.6906C20.8079 55.69 20.9 55.6708 20.9857 55.6343C21.0713 55.5978 21.1489 55.5446 21.2139 55.4778L24.7826 51.9091C25.3555 51.3362 26.4645 51.2046 27.1556 51.6279C28.5932 52.5043 30.3101 52.8016 31.9586 52.4596C33.6071 52.1177 35.0641 51.162 36.0345 49.7862L41.1763 42.4684H44.4933C45.3594 42.4674 46.1898 42.1229 46.8022 41.5105C47.4147 40.8981 47.7592 40.0677 47.7601 39.2016V35.6004C48.225 35.558 48.6759 35.4194 49.0843 35.1934L50.2944 34.6594L50.3051 34.6546C50.3232 34.6461 50.3421 34.6364 50.36 34.6263C50.8829 34.3297 51.3175 33.8993 51.6191 33.3793C51.9208 32.8593 52.0787 32.2684 52.0766 31.6672C52.0745 31.066 51.9125 30.4762 51.6073 29.9583C51.302 29.4404 50.8644 29.0131 50.3394 28.7201ZM49.1305 27.7965L46.6538 28.8384C46.1687 29.0425 45.6225 29.0455 45.1353 28.8468C44.648 28.6481 44.2597 28.264 44.0556 27.779C43.8516 27.294 43.8486 26.7478 44.0473 26.2605C44.246 25.7733 44.6301 25.3849 45.1151 25.1809L47.5918 24.1389C47.832 24.0378 48.0897 23.9851 48.3503 23.9837C48.6108 23.9822 48.8691 24.0321 49.1104 24.1305C49.3516 24.2289 49.5711 24.3738 49.7564 24.5571C49.9416 24.7403 50.089 24.9582 50.19 25.1984C50.291 25.4385 50.3438 25.6962 50.3452 25.9568C50.3466 26.2173 50.2967 26.4756 50.1984 26.7169C50.1 26.9581 49.955 27.1776 49.7718 27.3629C49.5886 27.5481 49.3707 27.6955 49.1305 27.7965ZM50.4513 19.258C50.5524 19.4982 50.6051 19.7559 50.6066 20.0164C50.608 20.2769 50.5581 20.5352 50.4597 20.7764C50.3614 21.0177 50.2164 21.2372 50.0332 21.4225C49.85 21.6077 49.6321 21.755 49.392 21.8561L45.6771 23.4191C45.1921 23.6231 44.6459 23.6261 44.1586 23.4274C43.6714 23.2287 43.283 22.8446 43.0789 22.3596C42.8755 21.8745 42.8728 21.3286 43.0714 20.8415C43.27 20.3544 43.6537 19.966 44.1383 19.7614L47.8532 18.1984C48.3382 17.9944 48.8844 17.9914 49.3716 18.1901C49.8588 18.3888 50.2473 18.773 50.4513 19.258ZM49.0761 12.1136C49.4395 12.2617 49.7507 12.5143 49.9705 12.8393C50.1903 13.1644 50.3088 13.5473 50.311 13.9397C50.3132 14.3321 50.1989 14.7163 49.9827 15.0438C49.7665 15.3712 49.4581 15.6272 49.0964 15.7794L44.1427 17.8636C43.6576 18.0671 43.1116 18.0698 42.6245 17.8712C42.1374 17.6726 41.7489 17.289 41.5444 16.8043C41.4433 16.5642 41.3906 16.3065 41.3891 16.0459C41.3877 15.7854 41.4375 15.5271 41.5359 15.2859C41.6343 15.0446 41.7792 14.8251 41.9624 14.6399C42.1457 14.4546 42.3636 14.3073 42.6038 14.2063L47.5575 12.1221C47.7975 12.0203 48.0553 11.9672 48.316 11.9657C48.5766 11.9642 48.835 12.0145 49.0761 12.1136ZM30.6537 31.57L35.2433 26.9803C36.0948 26.1287 36.5732 24.9737 36.5732 23.7694C36.5732 22.5651 36.0948 21.4101 35.2433 20.5584L34.3386 19.6537C34.2167 19.5318 34.0543 19.4589 33.8821 19.449C33.71 19.439 33.5402 19.4926 33.405 19.5996L27.2505 24.4727V10.849H43.6853C43.8718 10.849 44.0506 10.7749 44.1825 10.643C44.3143 10.5112 44.3884 10.3323 44.3884 10.1459C44.3884 9.95938 44.3143 9.78054 44.1825 9.64867C44.0506 9.51681 43.8718 9.44273 43.6853 9.44273H27.2505V7.58227C27.2513 7.08909 27.4475 6.61631 27.7962 6.26754C28.1449 5.91878 28.6176 5.72249 29.1108 5.72168H44.4933C44.9865 5.72239 45.4594 5.91865 45.8081 6.26742C46.1569 6.61619 46.3532 7.08903 46.3539 7.58227V9.44273H44.2084C44.0219 9.44273 43.8431 9.51681 43.7112 9.64867C43.5794 9.78054 43.5053 9.95938 43.5053 10.1459C43.5053 10.3323 43.5794 10.5112 43.7112 10.643C43.8431 10.7749 44.0219 10.849 44.2084 10.849H46.3539V11.1027L42.0587 12.9097C41.6483 13.0823 41.2759 13.3341 40.9628 13.6506C40.6498 13.9671 40.4021 14.3422 40.234 14.7545C40.0658 15.1668 39.9806 15.6081 39.983 16.0533C39.9855 16.4985 40.0756 16.9389 40.2483 17.3493C40.4436 17.8135 40.74 18.2283 41.116 18.5634C41.4919 18.8986 41.938 19.1455 42.4215 19.2864C41.9789 19.7645 41.6833 20.3599 41.5699 21.0015C41.4565 21.6431 41.5302 22.3038 41.7822 22.9046C42.1028 23.6729 42.6969 24.2951 43.4496 24.6507C43.0636 25.049 42.7812 25.5358 42.6272 26.0686C42.4732 26.6013 42.4522 27.1637 42.5662 27.7065C42.6801 28.2492 42.9255 28.7557 43.2808 29.1816C43.636 29.6074 44.0904 29.9396 44.6039 30.1489C44.6454 30.1659 44.6871 30.1813 44.729 30.1965C44.1953 30.9088 43.9636 31.8025 44.0837 32.6844C44.2039 33.5662 44.6664 34.3653 45.3711 34.9089H30.3639C30.1031 34.3462 29.9631 33.7351 29.9528 33.1151C29.9913 32.5321 30.2404 31.9829 30.6537 31.57ZM44.4935 41.0621H30.0513C30.4853 39.9927 30.7335 38.857 30.7852 37.704C30.8081 37.2407 30.7927 36.7763 30.7392 36.3155H46.3539V39.2016C46.3532 39.6948 46.1569 40.1676 45.8081 40.5164C45.4594 40.8652 44.9868 41.0614 44.4935 41.0621ZM49.6929 33.3877L48.4859 33.9204C48.4643 33.9299 48.4433 33.9405 48.4228 33.9523C47.9677 34.2093 47.4295 34.2764 46.9253 34.1389C46.421 34.0015 45.9913 33.6706 45.7296 33.2181C45.4679 32.7657 45.3953 32.2282 45.5275 31.7226C45.6598 31.2169 45.9863 30.7838 46.436 30.5175L47.6431 29.9849C47.6646 29.9754 47.6856 29.9648 47.7061 29.9531C48.1612 29.6956 48.6996 29.6281 49.2042 29.7654C49.7088 29.9027 50.1387 30.2337 50.4006 30.6863C50.6624 31.139 50.735 31.6767 50.6025 32.1826C50.4699 32.6884 50.1431 33.1215 49.6929 33.3877Z" fill="url(#paint0_linear)"/>
<defs>
<linearGradient id="paint0_linear" x1="8.13281" y1="4.31543" x2="62.0972" y2="19.0899" gradientUnits="userSpaceOnUse">
<stop stop-color="#72AF32"/>
<stop offset="1" stop-color="#4B9B3F"/>
</linearGradient>
</defs>
</svg>
