<svg width="295" height="420" viewBox="0 0 295 420" fill="none" xmlns="http://www.w3.org/2000/svg">
<g clip-path="url(#clip0)">
<g opacity="0.1">
<path d="M220.807 224.796C209.456 205.426 197.588 186.057 186.236 167.734C161.469 126.901 139.281 83.9741 119.674 40C100.582 83.9741 78.395 126.901 53.1117 167.734C32.4722 200.715 10.2848 237.36 -7.25879 272.435C-1.58293 272.958 4.09292 272.958 9.76877 272.958C116.578 272.958 119.674 227.413 220.807 224.796Z" fill="white"/>
<path d="M9.97619 397.492C-4.49992 397.492 -18.976 396.445 -33.4521 394.351C-23.6291 449.846 17.2142 520 119.581 520C241.077 520 276.233 420.528 274.682 365.033C274.682 360.845 274.165 356.656 273.648 351.944C259.172 349.85 244.179 348.803 229.186 348.803C119.581 349.327 119.581 397.492 9.97619 397.492Z" fill="white"/>
<path d="M226.435 245.326C117.042 245.326 119.764 294.993 10.3705 294.993C0.566406 294.993 -8.20571 294.468 -16.4618 293.944C-27.298 319.642 -34.5221 343.768 -35.0381 365.271V372.613C-20.0739 375.235 -4.59366 376.284 10.3705 375.76C119.764 375.76 119.764 326.985 229.158 326.985C242.574 326.985 255.99 328.034 269.406 329.607C260.634 300.237 248.25 272.441 233.286 246.218L226.435 245.326Z" fill="white"/>
</g>
</g>
<defs>
<clipPath id="clip0">
<rect width="295" height="420" fill="white"/>
</clipPath>
</defs>
</svg>
