<svg width="603" height="725" viewBox="0 0 603 725" fill="none" xmlns="http://www.w3.org/2000/svg">
<g opacity="0.03">
<path d="M551.639 285.622C527.179 243.933 501.607 202.244 477.147 162.809C423.779 74.9238 375.971 -17.468 333.721 -112.113C292.584 -17.468 244.775 74.9238 190.296 162.809C145.823 233.793 98.0145 312.664 60.2124 388.155C72.4425 389.282 84.6726 389.282 96.9026 389.282C327.05 389.282 333.721 291.256 551.639 285.622Z" fill="white"/>
<path d="M97.3484 657.316C66.156 657.316 34.9635 655.062 3.771 650.555C24.9373 769.997 112.945 920.99 333.52 920.99C595.314 920.99 671.067 706.896 667.725 587.454C667.725 578.439 666.611 569.425 665.497 559.284C634.305 554.776 601.998 552.523 569.692 552.523C333.52 553.65 333.52 657.316 97.3484 657.316Z" fill="white"/>
<path d="M563.765 329.809C328.049 329.809 333.915 436.707 98.1985 436.707C77.073 436.707 58.1712 435.578 40.3813 434.449C17.032 489.76 1.46587 541.685 0.354004 587.966L0.354004 603.769C32.5982 609.413 65.9543 611.67 98.1985 610.542C333.915 610.542 333.915 505.563 569.631 505.563C598.54 505.563 627.448 507.821 656.357 511.207C637.455 447.995 610.77 388.168 578.526 331.728L563.765 329.809Z" fill="white"/>
</g>
</svg>
