<svg width="632" height="672" viewBox="0 0 632 672" fill="none" xmlns="http://www.w3.org/2000/svg">
<g clip-path="url(#clip0)">
<g opacity="0.1">
<path d="M472.751 319.286C453.106 285.82 432.569 252.353 412.924 220.696C370.063 150.146 331.667 75.9774 297.736 0C264.697 75.9774 226.301 150.146 182.547 220.696C146.83 277.679 108.434 340.994 78.0737 401.595C87.896 402.499 97.7183 402.499 107.541 402.499C292.378 402.499 297.736 323.808 472.751 319.286Z" fill="white"/>
<path d="M107.899 617.666C82.8471 617.666 57.7956 615.857 32.7441 612.239C49.7433 708.122 120.424 829.333 297.574 829.333C507.827 829.333 568.666 657.467 565.982 561.584C565.982 554.347 565.088 547.111 564.193 538.97C539.141 535.352 513.195 533.542 487.249 533.542C297.574 534.447 297.574 617.666 107.899 617.666Z" fill="white"/>
<path d="M482.49 354.757C293.18 354.757 297.891 440.57 108.581 440.57C91.6149 440.57 76.4344 439.664 62.1469 438.758C43.3946 483.159 30.893 524.842 30 561.995V574.681C55.8961 579.211 82.6852 581.024 108.581 580.118C297.891 580.118 297.891 495.845 487.201 495.845C510.418 495.845 533.635 497.658 556.852 500.376C541.672 449.632 520.241 401.605 494.344 356.298L482.49 354.757Z" fill="white"/>
</g>
</g>
<defs>
<clipPath id="clip0">
<rect width="632" height="672" fill="white"/>
</clipPath>
</defs>
</svg>
