<svg width="26" height="40" viewBox="0 0 26 40" fill="none" xmlns="http://www.w3.org/2000/svg">
<path d="M2.43632 19.3054L1.57129 21.3707L4.5989 21.942L17.1418 19.7449L22.4618 17.2401L21.467 15.3506L16.2768 15.79L2.43632 19.3054Z" fill="white"/>
<path d="M0 27.5867L0.216638 29.7777L2.85962 30.654L16.2912 28.9013L25.8232 26.2722L25.8666 26.0531L25.5633 24.0812L19.3241 23.2048L1.99307 26.7103L0 27.5867Z" fill="white"/>
<path d="M21.4732 15.3996C20.5204 13.7855 19.5243 12.1713 18.5716 10.6445C16.4928 7.24173 14.6305 3.66449 12.9848 0C11.3824 3.66449 9.52019 7.24173 7.3981 10.6445C5.66577 13.3928 3.80353 16.4466 2.33105 19.3695C2.80744 19.4131 3.28383 19.4131 3.76022 19.4131C12.725 19.4131 12.9848 15.6177 21.4732 15.3996Z" fill="#5DB520"/>
<path d="M3.77688 29.7908C2.56187 29.7908 1.34685 29.7035 0.131836 29.529C0.956311 34.1536 4.38439 39.9998 12.9763 39.9998C23.1737 39.9998 26.1245 31.7104 25.9943 27.0859C25.9943 26.7368 25.9509 26.3878 25.9075 25.9952C24.6925 25.8207 23.4341 25.7334 22.1757 25.7334C12.9763 25.777 12.9763 29.7908 3.77688 29.7908Z" fill="#5DB520"/>
<path d="M21.9461 17.1106C12.7644 17.1106 12.9929 21.2495 3.81126 21.2495C2.98837 21.2495 2.25211 21.2058 1.55915 21.162C0.649646 23.3036 0.0433098 25.314 0 27.1059L0 27.7178C1.25598 27.9363 2.55528 28.0237 3.81126 27.98C12.9929 27.98 12.9929 23.9155 22.1746 23.9155C23.3006 23.9155 24.4267 24.0029 25.5528 24.134C24.8165 21.6865 23.7771 19.3701 22.5211 17.1849L21.9461 17.1106Z" fill="#252526"/>
</svg>
