<svg width="60" height="60" viewBox="0 0 60 60" fill="none" xmlns="http://www.w3.org/2000/svg">
<path d="M14.3584 55.8984H33.1084C34.5376 55.8968 35.9077 55.3283 36.9183 54.3177C37.9289 53.3072 38.4974 51.937 38.499 50.5078V47.6464C39.3938 48.4202 40.4572 48.9738 41.6043 49.2627C42.7514 49.5517 43.9502 49.5681 45.1047 49.3107C46.2593 49.0532 47.3375 48.529 48.2531 47.78C49.1687 47.031 49.8962 46.0781 50.3774 44.9975C50.8586 43.9169 51.0801 42.7386 51.0242 41.557C50.9683 40.3754 50.6365 39.2233 50.0554 38.193C49.4744 37.1626 48.6601 36.2826 47.6779 35.6234C46.6957 34.9642 45.5728 34.5442 44.399 34.3969C44.5283 33.6575 44.5933 32.9083 44.5936 32.1578C44.5936 31.9713 44.5195 31.7924 44.3876 31.6606C44.2558 31.5287 44.0769 31.4546 43.8905 31.4546H38.499V28.3662H48.4629C48.6494 28.3662 48.8282 28.2921 48.9601 28.1602C49.0919 28.0284 49.166 27.8495 49.166 27.663C49.1622 24.211 47.7945 20.9003 45.3608 18.4521L45.3517 18.443C43.4786 16.5868 41.091 15.3362 38.4985 14.8533V9.49219C38.4969 8.06301 37.9284 6.69284 36.9178 5.68226C35.9073 4.67167 34.5371 4.10321 33.1079 4.10156H14.3579C12.9287 4.10321 11.5586 4.67167 10.548 5.68226C9.5374 6.69284 8.96893 8.06301 8.96729 9.49219V50.5078C8.96893 51.9371 9.53746 53.3073 10.5481 54.3179C11.5588 55.3285 12.9291 55.8969 14.3584 55.8984ZM49.6262 41.9141C49.6263 43.1319 49.2661 44.3224 48.591 45.3359C47.9159 46.3494 46.9561 47.1406 45.8324 47.6098C44.7087 48.079 43.4713 48.2053 42.2759 47.9728C41.0806 47.7403 39.9807 47.1594 39.1148 46.3032C38.2489 45.447 37.6556 44.3538 37.4096 43.1611C37.1636 41.9685 37.2759 40.7297 37.7324 39.6008C38.1889 38.4718 38.9692 37.5031 39.975 36.8167C40.9808 36.1302 42.1672 35.7566 43.3849 35.7429H43.398C43.4112 35.7429 43.4248 35.7429 43.4383 35.7429H43.4544C43.5373 35.7429 43.6194 35.7459 43.7015 35.7492L44.058 35.8547C44.066 35.828 44.0727 35.8008 44.0804 35.7741C45.6003 35.931 47.0081 36.6453 48.0323 37.7792C49.0564 38.9131 49.6243 40.3862 49.6262 41.9141ZM42.978 34.3512C41.939 34.4164 40.9246 34.6951 39.998 35.1698C39.0715 35.6446 38.2527 36.3051 37.5928 37.1103C36.9329 37.9155 36.446 38.8481 36.1625 39.8498C35.8791 40.8516 35.805 41.901 35.9451 42.9326C34.3829 43.5688 32.7009 43.8574 31.0159 43.7784C29.3309 43.6995 27.6833 43.2548 26.1874 42.4752C24.6915 41.6956 23.3831 40.5999 22.3532 39.264C21.3232 37.9282 20.5962 36.3842 20.2227 34.7392C19.8493 33.0942 19.8382 31.3877 20.1904 29.738C20.5425 28.0883 21.2494 26.5351 22.2621 25.186C23.2747 23.8369 24.5687 22.7243 26.0544 21.9255C27.5401 21.1266 29.1818 20.6606 30.8656 20.5598V32.1578C30.8656 32.3443 30.9397 32.5231 31.0716 32.655C31.2035 32.7868 31.3823 32.8609 31.5688 32.8609H43.1662C43.1358 33.3612 43.0729 33.859 42.978 34.3512ZM36.8439 22.4753L41.8001 17.5195C42.5221 17.9243 43.2002 18.4029 43.8234 18.9476L36.8439 25.9267V22.4753ZM36.8439 20.4865V16.0651C38.0828 16.1401 39.3015 16.4141 40.4532 16.8768L36.8439 20.4865ZM43.2398 26.9599L46.904 23.2956C47.3804 24.4633 47.6623 25.7011 47.7387 26.9599H43.2398ZM46.2567 21.9544L41.251 26.9599H37.7995L44.8208 19.9385C45.3678 20.5591 45.849 21.2346 46.2567 21.9544ZM14.3584 5.50781H33.1084C34.1647 5.50902 35.1775 5.92919 35.9244 6.67614C36.6714 7.4231 37.0915 8.43584 37.0928 9.49219V11.1328H35.4521C35.2657 11.1328 35.0868 11.2069 34.955 11.3388C34.8231 11.4706 34.749 11.6495 34.749 11.8359C34.749 12.0224 34.8231 12.2013 34.955 12.3331C35.0868 12.465 35.2657 12.5391 35.4521 12.5391H37.0928V14.6719C36.7772 14.6489 36.4599 14.6372 36.1407 14.6367C35.9542 14.6367 35.7754 14.7108 35.6435 14.8427C35.5117 14.9745 35.4376 15.1534 35.4376 15.3398V27.663C35.4376 27.8495 35.5117 28.0284 35.6435 28.1602C35.7754 28.2921 35.9542 28.3662 36.1407 28.3662H37.0928V31.4546H32.2719V19.8361C32.2719 19.6496 32.1978 19.4708 32.066 19.3389C31.9341 19.207 31.7553 19.133 31.5688 19.133C29.8559 19.1271 28.1589 19.4612 26.5761 20.1158C24.9933 20.7704 23.5561 21.7326 22.3478 22.9466C20.2429 25.0627 18.9275 27.8367 18.6214 30.8057C18.3153 33.7746 19.0368 36.7587 20.6656 39.2598C22.2944 41.7608 24.7319 43.6274 27.5711 44.548C30.4102 45.4686 33.4793 45.3873 36.2658 44.3179C36.4674 44.9232 36.7453 45.5003 37.0928 46.0355V46.0547H10.374V12.5391H35.4756C35.6621 12.5391 35.8409 12.465 35.9728 12.3331C36.1046 12.2013 36.1787 12.0224 36.1787 11.8359C36.1787 11.6495 36.1046 11.4706 35.9728 11.3388C35.8409 11.2069 35.6621 11.1328 35.4756 11.1328H10.374V9.49219C10.3752 8.43583 10.7953 7.42307 11.5423 6.67611C12.2893 5.92915 13.302 5.50899 14.3584 5.50781ZM10.374 47.4609H37.0928V50.5078C37.0915 51.5642 36.6714 52.5769 35.9244 53.3239C35.1775 54.0708 34.1647 54.491 33.1084 54.4922H14.3584C13.302 54.491 12.2893 54.0709 11.5423 53.3239C10.7953 52.5769 10.3752 51.5642 10.374 50.5078V47.4609Z" fill="url(#paint0_linear)"/>
<path d="M23.7329 53.4375C24.2196 53.4375 24.6954 53.2932 25.1001 53.0228C25.5048 52.7524 25.8203 52.368 26.0065 51.9183C26.1928 51.4687 26.2415 50.9738 26.1466 50.4965C26.0516 50.0191 25.8172 49.5806 25.4731 49.2364C25.1289 48.8923 24.6904 48.6579 24.213 48.5629C23.7356 48.468 23.2408 48.5167 22.7912 48.703C22.3415 48.8892 21.9571 49.2046 21.6867 49.6093C21.4163 50.014 21.272 50.4898 21.272 50.9766C21.2727 51.629 21.5322 52.2546 21.9936 52.7159C22.4549 53.1773 23.0804 53.4368 23.7329 53.4375ZM23.7329 49.9219C23.9415 49.9219 24.1454 49.9837 24.3189 50.0996C24.4923 50.2155 24.6275 50.3802 24.7073 50.573C24.7871 50.7657 24.808 50.9777 24.7673 51.1823C24.7266 51.3869 24.6262 51.5748 24.4787 51.7223C24.3312 51.8698 24.1433 51.9703 23.9387 52.011C23.7341 52.0517 23.522 52.0308 23.3293 51.951C23.1366 51.8711 22.9719 51.736 22.856 51.5625C22.7401 51.3891 22.6782 51.1852 22.6782 50.9766C22.6786 50.697 22.7898 50.4289 22.9875 50.2312C23.1852 50.0334 23.4533 49.9222 23.7329 49.9219Z" fill="#72AF32"/>
<path d="M41.8428 46.3683V44.7363H40.7988V43.9563H41.8428V42.8883H40.7988V41.9763H41.8428V37.8003H44.0988C45.1468 37.8003 45.9228 38.0123 46.4268 38.4363C46.9388 38.8603 47.1948 39.4763 47.1948 40.2843C47.1948 41.1003 46.9188 41.7403 46.3668 42.2043C45.8148 42.6603 45.0028 42.8883 43.9308 42.8883H42.9228V43.9563H44.9028V44.7363H42.9228V46.3683H41.8428ZM42.9228 41.9763H43.7748C44.5028 41.9763 45.0668 41.8563 45.4668 41.6163C45.8748 41.3763 46.0788 40.9443 46.0788 40.3203C46.0788 39.7763 45.9108 39.3723 45.5748 39.1083C45.2388 38.8443 44.7148 38.7123 44.0028 38.7123H42.9228V41.9763Z" fill="#72AF32"/>
<defs>
<linearGradient id="paint0_linear" x1="8.96729" y1="4.10156" x2="60.9823" y2="17.6226" gradientUnits="userSpaceOnUse">
<stop stop-color="#72AF32"/>
<stop offset="1" stop-color="#4B9B3F"/>
</linearGradient>
</defs>
</svg>
